<svg xmlns="http://www.w3.org/2000/svg" viewBox="0 0 48 48" fill="none">
  <rect width="48" height="48" rx="12" fill="#0B1D51"/>
  <path d="M12 16C12 13.7909 13.7909 12 16 12H32C34.2091 12 36 13.7909 36 16V30C36 31.6569 34.6569 33 33 33H15C13.3431 33 12 31.6569 12 30V16Z" fill="#FF6B35"/>
  <rect x="15" y="15" width="18" height="10" rx="2" fill="#FFFFFF" opacity="0.95"/>
  <rect x="17" y="17" width="5" height="6" rx="1" fill="#0B1D51" opacity="0.15"/>
  <rect x="23.5" y="17" width="5" height="6" rx="1" fill="#0B1D51" opacity="0.15"/>
  <rect x="30" y="17" width="3" height="6" rx="1" fill="#0B1D51" opacity="0.15"/>
  <circle cx="17" cy="35" r="2.5" fill="#FFFFFF"/>
  <circle cx="17" cy="35" r="1.2" fill="#0B1D51"/>
  <circle cx="31" cy="35" r="2.5" fill="#FFFFFF"/>
  <circle cx="31" cy="35" r="1.2" fill="#0B1D51"/>
  <rect x="10" y="28" width="28" height="2" rx="1" fill="#FF6B35" opacity="0.6"/>
</svg>
